PathFileType	4	(X/Y/Z)	c:/Users/goper/Files/vsCode/490R/osim_files/C07/C07_Slow_02.trc
DataRate	CameraRate	NumFrames	NumMarkers	Units                	OrigDataRate	OrigDataStartFrame	OrigNumFrames
250.00	250.00	7	36	mm	250.0	1310	3491
                Frame#	Time	LPSIS			LASIS			LTH1			LTH2			LTH3			LTH4			LLFE			LMFE			LSH1			LSH2			LSH3			LSH4			LLMAL			LMMAL			LCAL			LMTP5			LTOE			LMTP1			RPSIS			RASIS			RTH1			RTH2			RTH3			RTH4			RLFE			RMFE			RSH1			RSH2			RSH3			RSH4			RLMAL			RMMAL			RCAL			RMTP1			RTOE			RMTP5		
		X1	Y1	Z1	X2	Y2	Z2	X3	Y3	Z3	X4	Y4	Z4	X5	Y5	Z5	X6	Y6	Z6	X7	Y7	Z7	X8	Y8	Z8	X9	Y9	Z9	X10	Y10	Z10	X11	Y11	Z11	X12	Y12	Z12	X13	Y13	Z13	X14	Y14	Z14	X15	Y15	Z15	X16	Y16	Z16	X17	Y17	Z17	X18	Y18	Z18	X19	Y19	Z19	X20	Y20	Z20	X21	Y21	Z21	X22	Y22	Z22	X23	Y23	Z23	X24	Y24	Z24	X25	Y25	Z25	X26	Y26	Z26	X27	Y27	Z27	X28	Y28	Z28	X29	Y29	Z29	X30	Y30	Z30	X31	Y31	Z31	X32	Y32	Z32	X33	Y33	Z33	X34	Y34	Z34	X35	Y35	Z35	X36	Y36	Z36

1310	5.23600	-232.59015	999.24219	376.59811	-397.62524	976.31256	460.37448	-306.25607	785.40045	509.05173	-308.85641	706.39856	508.40878	-310.82022	631.54395	497.03232	-386.16141	711.19946	487.04285	-271.27164	512.33856	475.49243	-280.83298	493.81546	359.08676	-147.84126	370.11615	484.19751	-110.16246	341.22342	467.28937	-184.17906	351.64828	474.55127	-156.52971	316.08374	466.44635	-8.38224	193.74774	423.98026	-50.22414	191.68449	354.45380	70.46073	176.40475	367.62692	-53.06361	53.64334	454.19803	-103.01630	48.02190	404.51581	-77.28323	43.52835	347.89603	-236.51587	1007.37970	277.33575	-400.48981	982.74219	205.07184	-378.25681	828.36646	148.15649	-395.00391	751.06476	146.33339	-407.91809	670.49445	151.71030	-464.19458	764.91785	182.34856	-429.33865	496.96851	190.10362	-425.17093	504.52097	302.63242	-400.10242	305.10516	182.54147	-436.44357	265.60696	180.49493	-458.70660	321.83212	182.63115	-465.84277	277.78278	185.72841	-447.75223	93.41148	231.28024	-479.45880	110.83878	304.80573	-405.40140	46.07338	283.81769	-616.15582	43.47327	300.34866	-637.60083	58.39105	250.83615	-588.07916	41.21192	194.94435
1311	5.24000	-236.22137	999.99652	375.82578	-401.61795	976.88422	459.58594	-311.58856	785.24512	508.63025	-314.85165	706.27045	508.49570	-317.68991	631.29327	497.56134	-392.11084	711.63562	487.32263	-279.41016	511.87454	476.12186	-289.53363	493.20450	359.71393	-154.81754	371.47922	484.28229	-116.95702	342.96100	467.41818	-190.85204	352.52652	475.19589	-163.07007	316.32617	467.37985	-13.33493	197.21970	424.38696	-55.63776	193.88449	354.69336	65.18258	181.81512	367.28522	-54.26791	55.29430	454.03256	-104.19524	48.24389	404.40195	-78.91114	44.69550	347.75165	-240.60390	1008.05676	276.78665	-404.55594	983.32513	204.41660	-381.88132	828.85498	147.78902	-398.50381	751.45380	146.14058	-411.34338	670.95056	151.74625	-468.12112	765.34650	181.39417	-431.81503	497.18808	189.76253	-427.66382	504.77423	301.99213	-401.72528	305.16580	182.38100	-437.78455	265.68015	180.25902	-460.24319	321.82071	182.44838	-467.03873	277.66083	185.63020	-447.99472	93.39716	231.33662	-479.44635	110.70433	304.82437	-405.47122	45.98710	283.87189	-616.11255	43.05104	300.43796	-637.69006	58.09353	250.95036	-588.12170	41.12297	194.91602
1312	5.24400	-240.15944	1000.50177	375.35052	-405.53918	977.38660	458.95782	-316.89752	785.09326	508.28888	-320.80969	706.11700	508.66455	-324.31845	631.06525	498.13852	-398.29276	711.97699	487.61023	-287.57864	511.38800	476.61871	-298.45007	492.54788	360.38806	-161.82037	372.79889	484.42719	-123.78984	344.84409	467.42410	-197.54614	353.41760	475.71353	-169.17290	318.38409	467.22610	-18.83828	200.41048	424.64069	-61.28471	196.16583	355.02820	59.73199	187.27177	367.04797	-55.56823	57.13274	453.87854	-105.46857	48.64952	404.56216	-80.60811	46.08757	347.55862	-244.66443	1008.70410	276.20981	-408.48715	984.00171	203.61203	-385.38708	829.30780	147.65070	-401.99649	751.83038	145.94023	-414.85675	671.39783	151.51630	-471.87491	765.61292	180.61919	-434.11990	497.36804	189.38496	-430.23068	505.15561	301.45013	-403.20816	305.29456	182.14804	-439.09006	265.75195	180.13937	-461.78583	321.87930	182.17619	-468.49237	277.70731	185.39656	-448.08429	93.46004	231.30869	-479.49545	110.58788	304.86298	-405.55008	45.97306	283.88419	-616.09351	42.67281	300.54584	-637.79028	57.82896	251.01521	-588.20587	41.06546	194.89554
1313	5.24800	-243.98058	1001.08997	374.80151	-409.17029	977.71320	458.22726	-322.33179	784.84644	507.87027	-326.96814	705.95172	508.80893	-331.27155	630.88678	498.60477	-404.78903	712.36969	487.76901	-295.92508	510.88593	477.18219	-307.44373	491.88785	360.95905	-169.09967	374.24847	484.65125	-130.66689	346.85037	467.39255	-204.52136	354.44275	476.19907	-176.10873	319.15802	468.07404	-24.49695	203.70399	424.76581	-67.04227	198.50169	355.28894	54.07746	192.79218	366.81970	-57.38800	59.19016	453.79178	-106.94573	49.10012	404.43201	-82.49847	47.69751	347.47644	-248.80322	1009.32751	275.63742	-412.73376	984.31281	203.07718	-388.73181	828.94110	146.91368	-405.47260	752.19360	145.72652	-418.83868	671.17670	151.85643	-475.73181	765.85730	179.72438	-436.36005	497.56476	189.06960	-432.68536	505.49734	301.05457	-404.72095	305.26779	182.03192	-440.23700	265.84189	179.91212	-463.37006	321.67719	181.96428	-469.70743	277.52237	185.32448	-448.28534	93.48313	231.39659	-479.65659	110.53437	304.91797	-405.62433	45.96639	283.92090	-616.19812	42.41332	300.57510	-637.91113	57.53432	251.07466	-588.26544	41.00330	194.89668
1314	5.25200	-247.85300	1001.63617	374.30438	-412.85922	978.19617	457.48541	-328.00885	784.66711	507.37057	-333.34335	705.75153	508.84369	-338.23654	630.68408	499.06030	-411.09918	712.95105	488.09702	-304.33133	510.40015	477.69080	-316.48834	491.24448	361.46051	-176.43343	375.76715	484.86554	-137.93971	348.70923	467.53662	-211.77884	355.50058	476.79807	-182.73944	321.23187	468.37576	-30.22271	207.09604	425.01846	-72.71574	201.02991	355.51813	48.21736	198.40318	366.67114	-59.41750	61.67344	453.70026	-108.90355	49.98071	404.39203	-84.55219	49.46471	347.44714	-252.90433	1009.99915	275.00406	-416.77737	984.76141	202.53183	-392.49313	829.40289	146.52621	-408.91702	752.53802	145.49860	-421.99347	671.53088	151.82764	-479.41745	765.98816	178.87927	-438.60217	497.66852	188.77048	-434.82498	505.65512	300.54733	-404.86655	309.55084	181.50447	-441.61124	265.72031	179.89275	-464.93637	321.18076	181.92157	-471.04276	277.39120	185.15285	-448.55753	93.50143	231.49794	-479.92654	110.51760	305.01498	-405.74060	45.98416	283.96243	-616.40430	42.26702	300.63184	-638.02173	57.27367	251.15408	-588.27832	40.94329	194.90367
1315	5.25600	-251.67612	1002.09296	373.83344	-416.66473	978.62775	456.98148	-333.59109	784.37451	506.88165	-339.75073	705.52161	508.81131	-345.63657	630.48334	499.38525	-417.41852	713.46777	488.36597	-312.72809	509.92929	478.21667	-325.60056	490.62357	361.93857	-183.97604	377.25833	485.09662	-145.06219	350.71313	467.64032	-219.07297	356.61737	477.13199	-189.93550	322.03259	468.79984	-36.07272	210.68492	425.00049	-78.49728	203.58592	355.76068	42.19859	204.10568	366.56857	-61.65867	64.32749	453.63214	-110.99683	50.95312	404.30228	-86.65520	51.44938	347.39899	-256.94318	1010.59595	274.44717	-420.76999	985.21942	201.88960	-396.00497	829.72809	146.11351	-412.31708	752.85907	145.25446	-425.34506	671.83447	151.78714	-483.09393	766.09784	178.08205	-440.83862	497.77707	188.47882	-437.07950	505.89026	300.05719	-406.38156	309.65063	181.50201	-442.59299	265.87067	179.70804	-466.30630	321.21436	181.82701	-472.25470	277.28909	185.02031	-448.73611	93.55330	231.56969	-480.23444	110.49971	305.10779	-405.83932	46.02653	284.01099	-616.53442	42.12235	300.69595	-638.14746	57.02704	251.19649	-588.33234	40.90464	194.91747
1316	5.26000	-255.43513	1002.55750	373.29257	-420.30157	978.90338	456.32852	-338.98026	784.05103	506.48962	-345.99612	705.24860	508.77057	-352.66550	630.23621	499.61758	-423.61642	713.88116	488.60858	-321.11130	509.53479	478.64655	-334.83347	490.03152	362.34683	-191.28667	378.80969	485.21457	-152.32629	352.75113	467.64615	-226.26074	357.68970	477.52640	-196.46701	324.00873	468.62814	-42.26293	214.06554	424.89359	-84.35986	206.26205	355.97385	35.98574	209.81998	366.49680	-63.87153	67.11806	453.59940	-113.07208	51.99725	404.35339	-88.98434	53.51244	347.47296	-260.90097	1011.16736	273.85355	-424.76031	985.62769	201.37241	-399.57211	829.99414	145.96985	-415.67026	753.15564	144.98737	-428.56982	672.02466	151.41747	-486.73532	766.28656	177.27148	-443.06503	497.89713	188.19041	-439.31302	506.29626	299.68771	-407.55084	309.96082	181.20567	-443.97806	265.78925	179.72601	-467.88589	320.90659	181.62955	-473.35410	277.15332	184.95309	-448.82971	93.64087	231.54321	-480.37686	110.43007	305.19949	-405.86478	46.09716	284.00098	-616.62579	41.99166	300.71948	-638.20801	56.80789	251.23599	-588.38727	40.90356	194.94101
